<svg width="514" height="210" viewBox="0 0 514 210" fill="none" xmlns="http://www.w3.org/2000/svg">
<path d="M80.7068 71.1895C88.2111 56.6795 100.762 35.5518 120 38C125.538 41.0768 125.538 41.0771 127 44C128.549 56.5226 123.524 68.2453 116 78C108.679 86.4914 99.0031 94.8589 87.9997 98C86.0007 98.0598 83.9983 98.0714 81.9997 98C82.0876 100.98 82.1947 103.958 82.3122 106.938L82.3806 109.455C82.6354 115.407 83.8299 120.456 85.9997 126C89.3868 126 90.948 125.837 93.9763 124.758L96.2614 123.965C97.8135 123.413 99.3659 122.861 100.918 122.309C110.509 118.982 119.352 117.684 129.5 117.812L132.433 117.814C137.171 117.843 141.701 118.074 146.39 118.758C149.88 119.138 150.741 119.139 153.953 117.41L156.25 115.062L158.578 112.785C164.337 106.162 167.9 100.593 170.375 92.125C172.645 84.8626 175.156 77.8298 178.25 70.875C178.579 70.1237 178.909 69.3717 179.248 68.5977C180.788 65.203 182.132 62.4112 185 60C187.562 59.6875 187.563 59.6875 190 60C192.392 62.3921 192.401 63.0737 192.562 66.375C192.331 78.9213 186.305 92.1955 179.285 102.395C177.642 105.725 177.779 108.336 178 112L179.801 109.578C184.592 103.205 189.557 97.1839 195.03 91.3857C197.991 88.2097 200.578 84.9335 203.062 81.375C210.927 70.3174 220.883 62.0585 233 56C240.155 55.6835 244.699 57.7581 250.547 61.6562C253.173 63.0949 254.851 63.3823 257.812 63.5C260.374 63.6179 261.596 63.6859 263.636 65.2734C267.394 69.6877 268.121 73.4102 268.429 79.0234L268.652 82.6172C268.8 85.114 268.941 87.6117 269.074 90.1094L269.304 93.7109C269.366 94.7966 269.428 95.8824 269.492 97.001C270.052 100.305 270.995 102.329 273 105H275C275.26 104.429 275.52 103.858 275.788 103.27C281.147 91.5797 286.828 80.1738 293.312 69.0625C294.173 67.5825 294.173 67.5822 295.051 66.0723C304.164 50.6804 304.164 50.6799 307.919 49.2891C309.875 48.9998 309.875 49 313 49C315.969 52.2729 316.343 54.3808 316.187 58.75L316.105 61.7344L316 64L318.625 61.5C321.178 59.3415 321.866 59.0124 325.375 58.6875L328 59C330.726 63.6635 331.361 66.9971 331.25 72.375C331.239 73.0381 331.228 73.7015 331.217 74.3848C331.112 78.9942 330.629 83.4407 330 88C329.919 91.0022 329.937 93.9976 330 97L332.187 94C334.609 91.0523 334.61 91.052 337.812 90.625L340 91C340.61 98.0141 338.905 104.448 334.386 109.973C331.602 112.584 329.634 113.86 325.875 114.688C321.64 113.675 320.379 112.709 318 109C316.513 99.8115 318.754 90.2472 320.343 81.1875C320.871 78.0858 321.152 75.1566 321 72C319.955 74.3526 318.913 76.707 317.875 79.0625C317.559 79.7781 317.242 80.4942 316.917 81.2314C315.317 84.8822 313.767 88.54 312.34 92.2617C312.081 92.9324 311.823 93.6039 311.557 94.2949C310.848 96.1567 310.152 98.0237 309.457 99.8906C307.984 103.034 306.736 104.882 304 107C298.688 106.688 298.687 106.687 297 105C296.451 97.792 298.158 91.4347 300 84.5L300.867 81.1406C301.569 78.4249 302.28 75.7113 303 73C302.683 73.5825 302.368 74.1655 302.042 74.7656C299.45 79.5362 296.849 84.3022 294.238 89.0625C292.284 92.6287 290.359 96.2063 288.48 99.8125C281.034 113.925 281.034 113.925 274 117C271 117.812 271 117.812 268 117C261.478 112.735 258.236 108.188 256.44 100.647C255.968 97.8017 255.887 95.1457 255.902 92.2617L255.912 89.0293L255.937 85.6875L255.951 82.2871C255.963 79.5248 255.979 76.7622 256 74C244.495 78.6465 235.952 87.3869 227.015 95.8086C211.116 110.742 211.116 110.742 201.261 110.504C198.571 109.904 197.073 108.779 195 107L192.988 109.703C192.097 110.886 191.204 112.068 190.312 113.25L188.994 115.027C185.505 119.627 182.291 123.279 176.625 125.062C171.599 124.976 169.805 123.184 166 120L164.347 121.496C159.635 125.5 156.164 127.766 149.945 128.223C148 128 148 128 145 126C141.867 125.657 141.867 125.657 138.269 125.664C137.274 125.652 137.274 125.651 136.259 125.639C134.11 125.62 131.961 125.62 129.812 125.625C129.086 125.624 128.36 125.623 127.612 125.622C115.836 125.637 105.274 126.537 94.2927 131.133C92.0001 132 91.9995 132 88.9997 132L89.656 133.836C93.5428 145.532 92.3992 153.885 86.9997 165C75.2779 185.49 54.961 200.262 32.6833 207.309C24.8707 209.321 16.2498 210.442 8.49973 207.812C4.73073 205.08 2.47469 202.425 0.999725 198C-0.0128233 190.912 2.97914 186.531 6.99973 181C24.4863 159.424 49.6693 145.534 73.9997 133L71.7536 125.48C71.1959 123.645 70.6063 121.82 69.9997 120C69.9079 118.554 69.8691 117.105 69.8669 115.656L69.863 113.129L69.8747 110.5L69.863 107.871L69.8669 105.344C69.868 104.583 69.8697 103.821 69.8708 103.037C70.0002 101 69.9998 101 70.9997 98L67.2497 97.8125C57.1865 96.6556 49.019 92.1638 41.9997 85L42.9997 81C48.3078 81.3563 52.5901 82.1742 57.5388 84.2344C63.1394 85.9768 69.1825 86.3562 74.9997 87L75.2732 84.4805C76.1372 80.3415 77.6952 77.0475 79.6247 73.3125C79.9815 72.6121 80.3391 71.9111 80.7068 71.1895ZM76.9997 138C66.0874 143.38 56.8547 150.422 47.8747 158.562C45.4045 160.841 42.9319 163.055 40.3239 165.176C34.4119 169.884 28.937 174.813 23.656 180.223L20.9997 183L18.3435 185.746L15.8747 188.375C12.8848 191.556 11.5095 193.629 10.9997 198L12.5114 199.465C18.2545 203.008 27.5754 201.966 34.0183 200.559C51.4066 195.498 66.2031 183.38 75.7146 168.199L76.9997 166C80.8126 159.598 81.4047 154.245 81.238 146.82C80.8918 142.723 79.9837 140.725 76.9997 138ZM404.547 55.5352C430.534 14.4373 430.534 14.437 441 17C443.327 18.6821 443.929 19.6901 444.574 22.5117C445.259 41.7196 435.113 60.4994 427.683 77.7227C416.417 103.456 416.417 103.456 413 131C423.048 120.359 423.048 120.359 432.765 109.418C433.795 108.235 434.891 107.109 436 106H439L439.078 103.07C439.747 87.7119 445.285 75.2371 456 64C461.711 59.3068 465.331 56.3502 473 57C475.75 58.3125 475.75 58.3126 478 61C478.815 63.5367 479.394 66.0977 480.004 68.6914C481.186 72.618 482.866 76.0573 484.75 79.6875C488.319 86.5686 491.504 93.5476 494.554 100.672L496 104L496.824 106.418C497.951 108.309 497.952 108.309 500.715 108.504L503.937 108.562C509.561 108.679 509.561 108.679 511.84 110.348C513 112 513 112 513.625 114.875C512.917 118.412 512.474 118.78 509.687 120.812C504.088 124.439 498.53 124.873 492 124C484.345 121.019 480.922 110.935 477.814 103.947C476.189 100.06 474.946 96.1022 474 92C471.726 94.927 469.789 97.9535 467.875 101.125C463.216 108.488 457.889 115.928 450 120C445.952 120.59 444.519 120.361 441.125 118L439 116L438.246 118.559C433.668 131.202 422.983 147.934 410.84 154.391C407.491 155.5 405.29 155.118 402 154C399.062 152.125 399.062 152.125 397 149C395.55 140.178 398.496 132.686 401.75 124.625C406.756 111.877 410.749 99.0004 414.452 85.8291C419.253 68.7523 424.421 51.8403 430 35C422.095 45.5714 416.911 56.9627 411.791 69.0723C406.942 80.5122 401.835 91.8086 396.437 103C396.142 103.616 395.847 104.232 395.543 104.866C388.525 119.474 388.525 119.475 384 124C381.687 124.437 381.687 124.437 379 124C376.187 122 376.187 122 374 119C373.246 113.725 374.311 109.383 375.531 104.219L376.361 100.686L377 98C375.015 102.227 373.036 106.456 371.062 110.688C370.621 111.633 370.621 111.633 370.171 112.598C365.856 121.853 361.692 131.155 357.805 140.601C354.567 148.371 354.566 148.37 352 151C349.375 151.312 349.375 151.312 347 151C346 150 346 150 345.625 146.438C346.238 110.941 378.026 62.179 394.562 31.625C395.314 30.2323 395.314 30.2321 396.081 28.8115C396.55 27.9586 397.02 27.1053 397.504 26.2266C397.914 25.4798 398.326 24.7333 398.749 23.9639C400.007 21.9898 401.208 20.5042 403 19C405.5 18.625 405.5 18.625 408 19C410.177 20.629 410.912 21.5488 411.433 24.2422C411.445 32.0786 409.574 38.6428 407 46C406.248 48.2703 405.498 50.5411 404.75 52.8125C404.168 54.5422 403.585 56.2716 403 58L404.547 55.5352ZM239 74C234.571 71.7856 234.57 71.7857 221 79C213.734 83.7986 209.297 90.6446 207 99C209.219 99 209.219 98.9998 212.937 95.7979C214.038 94.8338 215.144 93.8743 216.253 92.9189C217.159 92.1415 217.159 92.1409 218.047 91.3789C221.656 88.278 225.316 85.2419 228.99 82.2188C229.779 81.5706 230.546 80.9416 231.312 80.3125C233.423 78.5779 235.534 76.8433 237.646 75.1104C238.106 74.7329 238.553 74.3663 239 74ZM118 46C114.24 45.6332 112.056 45.9754 108.562 47.5C96.4386 55.2826 88.0889 72.3195 84.9997 86C89.3286 86 89.3289 85.9998 97.904 79.4746L99.5622 78.1875C101.777 76.5273 103.936 74.846 106 73C113.224 65.4846 117.652 56.4172 118 46ZM254 0C252.501 4.14509 250.165 5.33577 246.355 7.35547C244.637 8.28228 244.637 8.28291 242.884 9.22852C241.978 9.70861 241.978 9.70844 241.053 10.1982C237.934 11.8524 234.835 13.5425 231.738 15.2383C231.136 15.5675 230.535 15.8971 229.915 16.2363C224.661 19.1366 219.89 22.4074 215.043 25.9375C211.224 28.5258 207.26 30.7153 203.187 32.875C202.493 33.2448 201.799 33.6151 201.084 33.9961C193.769 37.7928 186.435 41.4554 178 40C175.375 38.4376 175.375 38.4374 174 36C174.578 25.6793 182.171 17.3057 189 10C192.232 7.84502 193.251 7.53148 197 8C198.875 9.18747 198.875 9.18762 200 11C200.125 13.3125 200.125 13.3125 199 16C197.346 17.5986 195.629 18.9965 193.789 20.375C191.633 22.333 190.452 24.4911 189 27C189.708 26.6836 190.416 26.367 191.145 26.041C204.042 20.2816 216.945 14.5465 229.95 9.03418C235.882 6.51078 241.714 3.83344 247.504 0.996094C250 2.15328e-05 250 4.6547e-10 254 0Z" fill="#070707"/>
</svg>
